<?xml version="1.0" encoding="utf-8" ?><svg xmlns="http://www.w3.org/2000/svg" xmlns:xlink="http://www.w3.org/1999/xlink" width="5136" height="3266" viewBox="0 0 5136 3266"><path fill="#FFF2E2" d="M3964.52 1425C3888.82 1468.01 3819.53 1517.14 3748.12 1563.06L3305.75 1848.49L2083.71 2633.46L1712.86 2873.05C1618.01 2935.02 1502.87 3018.17 1393.78 3067.05C1284.78 3115.9 1157.19 3143 1023.15 3138.29C825.78 3131.35 651.085 3055.77 523.375 2964.06C361.929 2848.12 272.188 2688.07 228.79 2537.86C188.328 2397.81 198.344 2253.07 199.132 2111.31L198.369 1723.7L197.867 1234.75C197.729 1133.06 193.149 1030.31 203.197 928.824C225.101 707.582 364.523 452.264 632.064 302.157C765.754 227.149 932.254 187.698 1111.11 195.101C1229.53 200.003 1340.17 226.768 1436.82 270.285C1532.52 313.373 1614.21 372.651 1696.71 425.324L2002.9 617.736L2584.44 978.827C2711.34 1057.29 2839.62 1134.68 2962.36 1215.81C2961.61 1215.53 2960.86 1215.26 2960.11 1214.97C2923.5 1200.87 2890.9 1178.48 2859.4 1159.99C2793.05 1120.74 2727.16 1081.17 2661.76 1041.28L1941.16 602.518L1679.42 438.773C1587.83 381.172 1493.7 313.085 1380.23 272.694C1243.7 224.094 1079.56 204.933 926.1 228.167C718.779 259.555 551.97 365.603 444.335 478.061C341.185 585.833 273.804 714.024 245.509 838.637C219.547 952.975 224.56 1068.62 225.283 1183.8L226.08 1555.92L226.515 2080.28C226.42 2183.92 220.218 2288.72 229.692 2392.19C235.228 2463.42 251.477 2534.15 278.217 2603.41C314.037 2700.18 376.284 2792.19 462.126 2875.27C504.371 2862.32 886.755 2587.46 934.438 2547.01C846.183 2508.5 801.875 2457.04 782.543 2390.49C771.262 2351.65 772.639 2312.06 772.721 2272.75L773.055 2158.59L772.521 1778.1L772.652 1278.9L772.344 1149.7C771.91 1102.91 770.825 1056.05 778.178 1009.43C785.995 959.867 805.603 907.523 851.102 866.134C879.845 839.988 922.637 817.069 973.598 812.037C1011.46 808.299 1051 815.199 1081.37 829.815C1110.84 843.995 1136.89 861.841 1163.17 878.316L1278.04 950.849L1614.97 1165.04L1990.13 1403.69C2053.25 1443.61 2143.72 1494.19 2195.64 1538.35C2237.33 1573.81 2255.57 1608.08 2264.61 1651.69L2267.45 1665.87C2330.56 1630.07 2389.89 1591.14 2449.54 1553.02L2759.85 1351.72L2900 1260.87C2918 1249.24 2943.06 1236.39 2957.76 1223.21C2960.31 1220.93 2960.17 1218.33 2960.44 1215.67C2961.28 1215.52 2962.12 1215.37 2962.95 1215.21C2968.75 1214.08 2973.72 1212.98 2978.17 1210.28C3012.58 1189.37 3045.03 1166.65 3078.55 1145.1L3321.08 988.969C3366.55 959.653 3412.39 930.568 3458.59 901.716C3486.54 884.048 3515.68 866.654 3541.48 847.696C3434.95 824.621 3366.53 778.926 3317.5 715.183C3242.34 617.446 3236.18 497.66 3292.69 395.417C3327.36 332.683 3385.77 270.182 3483.54 240.712C3514.15 231.487 3545.52 227.164 3579.19 225.667C3643.61 222.802 3709.11 224.822 3773.65 225.16L4028.48 225.12L4402.02 224.866C4471.45 224.78 4541.56 223.098 4610.9 225.07C4639.23 225.876 4669.55 227.421 4696.36 233.732C4782.31 253.967 4843.01 308.524 4879.25 359.715C4925.69 425.33 4941.16 497.036 4935.37 568.481C4928.93 647.929 4891.09 746.811 4865.16 826.144C4835.98 916.073 4808.38 1006.21 4782.36 1096.53L4664.1 1491.3C4641.85 1566.2 4624.76 1659.14 4581.94 1729.4C4547.01 1786.72 4488.2 1843.35 4396.67 1868.71C4330.8 1886.96 4258.63 1885.42 4192.48 1868.54C4099.17 1844.75 4032.22 1788.24 3994.16 1730.8C3943.73 1654.68 3934.79 1568.23 3949.63 1486.82C3953.41 1466.08 3960.28 1445.67 3964.52 1425ZM4237.22 1852.75C4240.28 1853.64 4243.34 1854.43 4246.6 1854.98C4301.48 1864.2 4368.29 1854.14 4416.39 1836.45C4504.64 1804.01 4554.41 1739.43 4579.77 1678.99C4602.54 1624.71 4615.01 1568.25 4632.05 1513.11L4751.36 1112.77L4844.91 810.1C4869.65 732.095 4907.5 630.158 4910.38 552.228C4913.06 479.494 4891.33 406.678 4833.23 343.33C4798.71 305.689 4746.49 266.719 4677.46 255.156C4656.62 250.466 4632.91 249.825 4610.99 249.335C4549.71 247.963 4487.85 250.035 4426.5 250.222L4060.54 250.389L3760.58 250.3C3699.16 250.133 3637.16 248.31 3575.83 250.67C3545.43 251.839 3517.61 255.609 3490.03 264.027C3475 268.614 3460.29 274.105 3447.82 281.178C3463.9 280.248 3482.24 275.436 3498.1 272.936C3526 268.645 3554.44 265.975 3583.09 264.958C3645.8 262.457 3709.94 264.847 3772.84 264.881L4147.45 265.175C4230.41 265.473 4313.38 265.357 4396.35 264.829C4449.3 264.589 4503.04 263.125 4555.87 265.61C4579.16 266.706 4600.95 270.623 4622.95 275.411C4701.56 296.534 4755.53 338.901 4787.51 388.374C4820.89 440.853 4835.1 497.467 4829.05 553.946C4821.61 620.403 4792.43 687.495 4771.83 752.82L4681.95 1050.99L4570.7 1423.12L4531.14 1559.04C4515.21 1614.37 4502.33 1671.82 4467.95 1723.98C4435.22 1773.64 4378.54 1819.13 4298.19 1839.63C4279.04 1844.52 4254.79 1846.11 4237.22 1852.75ZM1540.47 2138.51L1955.78 1870.21L2064.95 1800.26C2097.53 1779.51 2132.75 1758.97 2159.01 1734.73C2176.38 1718.51 2185.53 1699.3 2185.26 1679.67C2184.96 1652.49 2168.92 1625.29 2143.4 1603.69C2097.68 1565 2037.69 1531.51 1983.15 1497.88C1928.47 1464 1874.42 1429.71 1821 1395.03C1574.54 1237.09 1326.78 1079.97 1077.74 923.677C1051.43 907.484 1025.63 893.098 986.847 893.419L983.656 893.464C940.272 901.621 912.75 918.053 891.754 943.19C869.028 970.397 861.829 1004.72 859.391 1035.05C854.552 1095.22 858.905 1156.47 859.495 1216.73L860.401 1518.67L860.421 2041.19L860.176 2207.05C859.899 2264.09 848.182 2339.11 875.155 2392.36C889 2419.69 913.784 2449.21 955.149 2463.23C971.352 2468.71 990.49 2471.99 1008.56 2468.59C1028.97 2464.75 1048.54 2454.31 1064.31 2445.52C1123.97 2412.28 1177.7 2373.67 1233.26 2337.63C1336.31 2271.66 1438.71 2205.29 1540.47 2138.51Z"/><path fill="#F9EDDC" fill-opacity="0.015686275" d="M3447.82 281.178C3460.29 274.105 3475 268.614 3490.03 264.027C3517.61 255.609 3545.43 251.839 3575.83 250.67C3637.16 248.31 3699.16 250.133 3760.58 250.3L4060.54 250.389L4426.5 250.222C4487.85 250.035 4549.71 247.963 4610.99 249.335C4632.91 249.825 4656.62 250.466 4677.46 255.156C4667.07 255.693 4633.88 254.242 4628.22 257.659C4626.86 261.964 4626.19 265.061 4626.91 269.499L4625.28 271.635C4623.28 274.3 4623.89 273.193 4622.95 275.411C4600.95 270.623 4579.16 266.706 4555.87 265.61C4503.04 263.125 4449.3 264.589 4396.35 264.829C4313.38 265.357 4230.41 265.473 4147.45 265.175L3772.84 264.881C3709.94 264.847 3645.8 262.457 3583.09 264.958C3554.44 265.975 3526 268.645 3498.1 272.936C3482.24 275.436 3463.9 280.248 3447.82 281.178Z"/><path d="M3964.52 1425C3888.82 1468.01 3819.53 1517.14 3748.12 1563.06L3305.75 1848.49L2083.71 2633.46L1712.86 2873.05C1618.01 2935.02 1502.87 3018.17 1393.78 3067.05C1284.78 3115.9 1157.19 3143 1023.15 3138.29C825.78 3131.35 651.085 3055.77 523.375 2964.06C361.929 2848.12 272.188 2688.07 228.79 2537.86C188.328 2397.81 198.344 2253.07 199.132 2111.31L198.369 1723.7L197.867 1234.75C197.729 1133.06 193.149 1030.31 203.197 928.824C225.101 707.582 364.523 452.264 632.064 302.157C765.754 227.149 932.254 187.698 1111.11 195.101C1229.53 200.003 1340.17 226.768 1436.82 270.285C1532.52 313.373 1614.21 372.651 1696.71 425.324L2002.9 617.736L2584.44 978.827C2711.34 1057.29 2839.62 1134.68 2962.36 1215.81C2961.61 1215.53 2960.86 1215.26 2960.11 1214.97C2923.5 1200.87 2890.9 1178.48 2859.4 1159.99C2793.05 1120.74 2727.16 1081.17 2661.76 1041.28L1941.16 602.518L1679.42 438.773C1587.83 381.172 1493.7 313.085 1380.23 272.694C1243.7 224.094 1079.56 204.933 926.1 228.167C718.779 259.555 551.97 365.603 444.335 478.061C341.185 585.833 273.804 714.024 245.509 838.637C219.547 952.975 224.56 1068.62 225.283 1183.8L226.08 1555.92L226.515 2080.28C226.42 2183.92 220.218 2288.72 229.692 2392.19C235.228 2463.42 251.477 2534.15 278.217 2603.41C314.037 2700.18 376.284 2792.19 462.126 2875.27C478.548 2901.13 530.478 2936.37 560.931 2957.72C682.514 3042.96 849.479 3107.44 1033.69 3112.51C1161.97 3116.04 1285.73 3086.28 1388.72 3038.97C1493.78 2990.7 1580.82 2926.23 1671.52 2867.75L2096.28 2594.22L3315.14 1811.82L3675.02 1580.02C3783.04 1509.89 3890.52 1438.63 4004.05 1372.09C3997.63 1408.71 3985.14 1445.11 3977.42 1481.67C3957.88 1574.2 3971.14 1670.88 4045.5 1753.22C4088.85 1801.24 4151.73 1838.28 4237.22 1852.75C4240.28 1853.64 4243.34 1854.43 4246.6 1854.98C4301.48 1864.2 4368.29 1854.14 4416.39 1836.45C4504.64 1804.01 4554.41 1739.43 4579.77 1678.99C4602.54 1624.71 4615.01 1568.25 4632.05 1513.11L4751.36 1112.77L4844.91 810.1C4869.65 732.095 4907.5 630.158 4910.38 552.228C4913.06 479.494 4891.33 406.678 4833.23 343.33C4798.71 305.689 4746.49 266.719 4677.46 255.156C4656.62 250.466 4632.91 249.825 4610.99 249.335C4549.71 247.963 4487.85 250.035 4426.5 250.222L4060.54 250.389L3760.58 250.3C3699.16 250.133 3637.16 248.31 3575.83 250.67C3545.43 251.839 3517.61 255.609 3490.03 264.027C3475 268.614 3460.29 274.105 3447.82 281.178C3371.33 313.91 3313.19 402.61 3296.23 457.714C3267.4 551.416 3290.61 658.542 3375.74 738.526C3415.58 775.955 3471.4 809.069 3543.37 817.467C3607.37 824.934 3676.96 821.925 3741.93 821.938C3442.91 1003.97 3155.31 1194.27 2865.5 1382.22L1814.98 2060L1322.86 2379.1L1183.64 2468.79C1151.55 2489.77 1120.13 2512.61 1085.28 2531.69C1058.06 2546.6 1027.55 2556.06 990.724 2555.54C971.246 2555.16 952.094 2552.26 934.438 2547.01C846.183 2508.5 801.875 2457.04 782.543 2390.49C771.262 2351.65 772.639 2312.06 772.721 2272.75L773.055 2158.59L772.521 1778.1L772.652 1278.9L772.344 1149.7C771.91 1102.91 770.825 1056.05 778.178 1009.43C785.995 959.867 805.603 907.523 851.102 866.134C879.845 839.988 922.637 817.069 973.598 812.037C1011.46 808.299 1051 815.199 1081.37 829.815C1110.84 843.995 1136.89 861.841 1163.17 878.316L1278.04 950.849L1614.97 1165.04L1990.13 1403.69C2053.25 1443.61 2143.72 1494.19 2195.64 1538.35C2237.33 1573.81 2255.57 1608.08 2264.61 1651.69L2267.45 1665.87C2330.56 1630.07 2389.89 1591.14 2449.54 1553.02L2759.85 1351.72L2900 1260.87C2918 1249.24 2943.06 1236.39 2957.76 1223.21C2960.31 1220.93 2960.17 1218.33 2960.44 1215.67C2961.28 1215.52 2962.12 1215.37 2962.95 1215.21C2968.75 1214.08 2973.72 1212.98 2978.17 1210.28C3012.58 1189.37 3045.03 1166.65 3078.55 1145.1L3321.08 988.969C3366.55 959.653 3412.39 930.568 3458.59 901.716C3486.54 884.048 3515.68 866.654 3541.48 847.696C3434.95 824.621 3366.53 778.926 3317.5 715.183C3242.34 617.446 3236.18 497.66 3292.69 395.417C3327.36 332.683 3385.77 270.182 3483.54 240.712C3514.15 231.487 3545.52 227.164 3579.19 225.667C3643.61 222.802 3709.11 224.822 3773.65 225.16L4028.48 225.12L4402.02 224.866C4471.45 224.78 4541.56 223.098 4610.9 225.07C4639.23 225.876 4669.55 227.421 4696.36 233.732C4782.31 253.967 4843.01 308.524 4879.25 359.715C4925.69 425.33 4941.16 497.036 4935.37 568.481C4928.93 647.929 4891.09 746.811 4865.16 826.144C4835.98 916.073 4808.38 1006.21 4782.36 1096.53L4664.1 1491.3C4641.85 1566.2 4624.76 1659.14 4581.94 1729.4C4547.01 1786.72 4488.2 1843.35 4396.67 1868.71C4330.8 1886.96 4258.63 1885.42 4192.48 1868.54C4099.17 1844.75 4032.22 1788.24 3994.16 1730.8C3943.73 1654.68 3934.79 1568.23 3949.63 1486.82C3953.41 1466.08 3960.28 1445.67 3964.52 1425ZM1540.47 2138.51L1955.78 1870.21L2064.95 1800.26C2097.53 1779.51 2132.75 1758.97 2159.01 1734.73C2176.38 1718.51 2185.53 1699.3 2185.26 1679.67C2184.96 1652.49 2168.92 1625.29 2143.4 1603.69C2097.68 1565 2037.69 1531.51 1983.15 1497.88C1928.47 1464 1874.42 1429.71 1821 1395.03C1574.54 1237.09 1326.78 1079.97 1077.74 923.677C1051.43 907.484 1025.63 893.098 986.847 893.419L983.656 893.464C940.272 901.621 912.75 918.053 891.754 943.19C869.028 970.397 861.829 1004.72 859.391 1035.05C854.552 1095.22 858.905 1156.47 859.495 1216.73L860.401 1518.67L860.421 2041.19L860.176 2207.05C859.899 2264.09 848.182 2339.11 875.155 2392.36C889 2419.69 913.784 2449.21 955.149 2463.23C971.352 2468.71 990.49 2471.99 1008.56 2468.59C1028.97 2464.75 1048.54 2454.31 1064.31 2445.52C1123.97 2412.28 1177.7 2373.67 1233.26 2337.63C1336.31 2271.66 1438.71 2205.29 1540.47 2138.51Z"/></svg>